<svg width="1920" height="983" viewBox="0 0 1920 983" fill="none" xmlns="http://www.w3.org/2000/svg">
<g clip-path="url(#clip0_2_34)">
<path d="M850.101 322.343L841.821 333.387L836.305 338.91L825.269 344.982L823.612 349.953C823.612 349.953 819.196 354.372 819.75 357.134C820.304 359.897 820.304 364.865 820.304 364.865C820.304 364.865 812.578 372.044 809.266 374.253C805.953 376.461 801.538 381.431 801.538 381.431C801.538 381.431 798.779 384.746 797.124 385.85C795.469 386.952 792.711 390.267 790.502 393.581C788.293 396.896 786.086 399.102 784.983 400.758C783.88 402.414 780.567 406.281 778.912 412.356C777.257 418.433 772.841 425.61 772.841 425.61L771.736 428.37C772.29 437.759 772.287 439.416 773.393 442.73C774.496 446.042 775.602 444.936 774.496 452.117C773.393 459.294 773.393 462.057 772.29 465.371C771.186 468.681 767.874 474.756 766.773 477.521C765.667 480.281 768.98 485.25 768.98 485.25C768.98 485.25 770.637 492.431 769.531 494.087C768.428 495.746 770.083 499.058 770.083 499.058C770.083 499.058 776.705 502.922 778.915 505.133C781.121 507.341 784.985 510.656 785.537 512.312C786.091 513.971 790.504 521.702 791.056 523.358C791.608 525.014 796.024 531.086 797.127 532.745C798.23 534.404 803.749 540.478 803.749 540.478C803.749 540.478 810.923 545.996 812.581 548.207C814.236 550.415 819.203 551.519 820.856 553.175C822.513 554.832 826.375 554.277 828.581 555.938C830.791 557.594 835.204 554.831 837.413 555.938C839.62 557.042 845.693 554.834 847.348 553.73C849.003 552.626 852.864 548.762 855.625 550.415C858.383 552.069 860.039 550.415 862.248 550.967C864.452 551.519 867.764 548.762 869.971 548.762C872.18 548.762 877.697 546.551 879.352 546.551C881.009 546.551 886.528 543.234 888.737 543.234C890.941 543.234 893.702 541.03 896.461 542.132C899.219 543.234 898.116 539.926 903.083 541.58C908.05 543.234 909.705 541.58 911.36 543.234C913.018 544.892 915.227 543.239 916.882 545.447C918.537 547.652 921.295 549.309 921.847 551.519C922.396 553.73 925.709 555.94 925.709 555.94L929.021 556.49C929.021 556.49 933.439 553.178 934.54 555.388C935.643 557.597 940.611 557.047 940.611 557.047L945.576 562.567L947.233 564.776C947.233 564.776 950.546 573.613 949.992 576.925C949.44 580.238 949.44 587.417 947.785 589.073C946.13 590.731 945.027 597.91 945.027 597.91C945.027 597.91 942.817 600.119 947.785 604.537C952.752 608.959 956.065 612.82 957.72 615.026C959.377 617.237 963.793 623.314 964.34 627.178C964.894 631.043 965.997 633.251 968.206 638.222C970.413 643.193 973.171 643.745 973.723 649.27C974.277 654.79 975.378 654.793 974.826 658.655C974.275 662.521 972.62 663.073 974.275 665.834C975.93 668.596 978.134 673.567 977.587 675.223C977.035 676.879 975.93 684.058 975.93 684.058L974.826 687.373L969.861 696.765L966.549 701.731C965.445 705.595 963.239 709.462 963.79 714.985C964.34 720.508 961.032 720.505 965.445 726.026C969.861 731.551 972.065 737.626 974.826 742.597C977.587 747.565 979.242 752.536 979.791 755.848C980.345 759.163 982.552 760.27 983.655 764.686C984.756 769.105 985.31 771.31 985.31 774.073C985.31 776.833 984.756 784.015 985.864 785.671C986.965 787.327 987.519 792.3 988.071 794.508C988.623 796.719 986.414 797.271 989.726 801.138C993.038 805.002 995.245 807.21 997.452 809.973C999.658 812.736 999.107 811.629 1000.76 815.496C1002.42 819.36 1004.63 821.573 1005.18 824.883C1005.73 828.195 1006.28 836.478 1007.94 840.345C1009.59 844.212 1011.8 848.079 1011.8 848.079C1011.8 848.079 1017.87 851.943 1020.08 851.391C1022.28 850.839 1026.7 845.873 1030.01 847.527C1033.33 849.183 1036.09 847.527 1038.84 847.527C1041.6 847.527 1044.36 844.212 1047.12 844.212C1049.88 844.212 1053.74 839.793 1055.96 840.9C1058.16 842.001 1060.92 839.791 1063.68 837.03C1066.44 834.273 1068.09 832.064 1073.06 827.646C1078.03 823.227 1077.47 823.224 1080.78 820.464C1084.1 817.702 1087.41 811.627 1091.27 810.523C1095.13 809.419 1096.24 805.557 1097.34 802.794C1098.45 800.031 1098.99 798.375 1100.65 796.165C1102.31 793.959 1101.2 796.724 1103.96 789.54C1106.73 782.359 1110.04 779.601 1112.8 777.942C1115.56 776.286 1117.21 772.974 1118.87 772.419C1120.52 771.865 1123.28 774.076 1122.18 769.105C1121.08 764.136 1122.18 756.957 1121.08 755.301C1119.97 753.64 1118.32 759.163 1118.87 750.878C1119.43 742.597 1125.49 734.311 1125.49 734.311C1125.49 734.311 1133.77 723.82 1136.53 722.164C1139.29 720.508 1139.84 718.852 1143.71 716.641C1147.57 714.435 1155.85 708.913 1155.85 706.15C1155.85 703.387 1159.16 696.208 1159.16 694.55C1159.16 692.893 1159.16 691.237 1158.06 681.848C1156.95 672.463 1159.16 674.669 1155.85 665.834C1152.54 656.999 1151.98 645.953 1149.78 643.193C1147.57 640.43 1148.67 633.248 1148.67 631.043C1148.67 628.835 1152.54 623.312 1154.19 621.104C1155.85 618.893 1163.02 610.055 1163.02 610.055C1163.02 610.055 1174.06 597.356 1177.92 591.283C1181.79 585.206 1185.65 579.686 1188.41 577.477C1191.17 575.269 1197.79 570.294 1201.65 564.773C1205.51 559.253 1213.24 548.761 1213.79 547.1C1214.34 545.447 1218.76 539.924 1218.76 539.924C1218.76 539.924 1224.83 532.742 1225.93 528.878C1227.03 525.011 1232.55 503.474 1231.45 504.579C1230.35 505.685 1223.72 506.787 1221.52 507.339C1219.31 507.893 1224.83 510.099 1208.82 508.997C1192.82 507.891 1184.54 510.653 1184.54 510.653C1179.57 509.547 1175.71 515.07 1174.06 507.339C1172.4 499.61 1171.29 495.191 1167.99 489.668C1164.67 484.146 1162.47 481.937 1157.5 474.756C1152.54 467.579 1153.08 470.889 1148.67 465.371C1144.26 459.848 1143.15 461.502 1140.39 454.326C1137.63 447.147 1135.43 449.909 1132.11 439.968C1128.8 430.023 1126.59 428.919 1124.94 423.399C1123.28 417.879 1121.08 416.217 1119.97 411.249C1118.87 406.278 1106.18 380.877 1104.52 379.218C1102.86 377.565 1100.11 368.725 1100.66 370.383C1101.21 372.039 1108.94 377.562 1108.94 377.562C1108.94 377.562 1113.35 375.904 1115.01 375.904C1116.66 375.904 1123.29 381.981 1123.29 384.187C1123.29 386.397 1134.88 396.891 1137.64 404.622C1140.39 412.353 1143.71 417.876 1144.26 420.084C1144.8 422.292 1150.33 431.13 1152.54 434.445C1154.74 437.759 1161.92 444.384 1163.02 447.699C1164.12 451.013 1174.61 462.057 1174.61 469.236C1174.61 476.415 1179.57 485.802 1180.13 488.01C1180.68 490.218 1190.61 492.983 1190.61 492.983L1203.86 489.668C1203.86 489.668 1223.72 476.964 1225.93 476.964C1228.14 476.964 1245.8 468.681 1245.8 468.681C1245.8 468.681 1252.97 462.057 1257.94 458.192C1262.91 454.326 1268.43 447.149 1269.53 443.832C1270.63 440.517 1272.84 439.968 1277.26 434.994C1281.67 430.023 1287.74 425.055 1283.88 421.74C1280.02 418.428 1277.81 419.532 1272.29 414.009C1266.77 408.489 1267.32 409.593 1263.46 402.412C1259.59 395.235 1264.01 386.949 1255.73 395.235C1247.46 403.518 1250.77 405.726 1242.49 407.387C1234.21 409.041 1230.9 414.564 1227.03 409.041C1223.17 403.518 1219.31 406.833 1217.1 398.547C1214.89 390.264 1213.24 389.71 1212.69 386.4C1212.14 383.085 1212.69 383.085 1208.27 374.8C1203.86 366.517 1207.17 353.815 1209.93 360.994C1212.69 368.173 1217.1 369.277 1224.28 374.248C1231.45 379.216 1234.76 383.085 1241.38 383.637C1248.01 384.187 1253.52 383.637 1254.63 384.739C1255.73 385.845 1256.83 384.189 1259.59 385.291C1262.36 386.397 1263.45 383.637 1264.56 388.051C1265.66 392.47 1271.73 393.022 1274.49 395.782C1277.25 398.542 1277.25 397.441 1284.43 398.542C1291.61 399.649 1301.54 399.649 1301.54 399.649L1312.02 399.094L1324.16 400.196C1324.16 400.196 1333 405.167 1335.2 405.167C1337.41 405.167 1337.96 411.244 1343.48 414.556C1349 417.871 1350.1 418.421 1353.41 422.288C1356.73 426.154 1356.17 427.81 1360.59 431.675C1365 435.544 1372.18 431.125 1373.28 429.471C1374.38 427.813 1379.9 425.053 1378.8 429.471C1377.7 433.888 1384.32 432.229 1382.66 442.725C1381.01 453.214 1379.9 450.454 1382.66 457.635C1385.42 464.814 1397.56 486.903 1398.12 493.53C1398.67 500.157 1401.98 497.949 1402.53 504.026C1403.08 510.099 1406.39 512.307 1406.39 516.726C1406.39 521.145 1410.26 522.246 1410.81 525.563C1411.36 528.878 1417.43 526.113 1419.09 525.563C1420.74 525.009 1428.47 517.83 1428.47 517.83C1428.47 517.83 1431.79 516.728 1431.23 511.203C1430.67 505.685 1431.23 506.787 1431.23 498.504C1431.23 490.221 1427.92 490.221 1429.57 481.94C1431.23 473.657 1435.64 468.684 1436.75 464.819C1437.85 460.955 1442.27 454.328 1444.47 453.773C1446.68 453.221 1458.82 447.149 1461.58 443.28C1464.34 439.416 1468.76 434.997 1473.17 430.58C1477.59 426.164 1485.31 420.641 1486.97 422.297C1488.62 423.953 1488.07 423.401 1490.83 423.401C1493.59 423.401 1498.56 425.612 1502.42 426.164C1506.28 426.716 1514.01 436.103 1515.67 441.074C1517.32 446.045 1516.22 444.938 1522.29 452.12C1528.36 459.296 1533.88 454.878 1533.88 463.715C1533.88 472.553 1533.88 471.998 1536.64 475.313C1539.4 478.628 1542.71 469.238 1546.02 470.345C1549.33 471.451 1549.88 469.24 1552.64 478.076C1555.4 486.913 1557.05 486.913 1557.61 495.748C1558.16 504.583 1557.05 496.3 1557.05 503.477C1557.05 510.658 1556.5 511.21 1557.61 517.835C1558.71 524.467 1562.57 526.675 1562.02 527.779C1562.02 527.779 1565.33 518.392 1564.23 511.762C1563.13 505.138 1564.23 495.751 1566.99 492.991C1569.75 490.225 1572.51 487.468 1574.71 494.647C1576.92 501.823 1578.02 496.303 1582.99 504.586C1587.96 512.871 1592.37 511.21 1592.92 515.077C1593.48 518.944 1596.24 519.498 1600.1 522.808C1603.96 526.123 1607.27 522.259 1611.69 518.944C1616.11 515.629 1628.24 503.479 1628.8 498.509C1629.35 493.54 1634.32 494.642 1625.49 481.945C1616.65 469.243 1616.65 464.824 1607.27 457.093C1597.9 449.362 1592.38 448.81 1599.55 438.868C1606.73 428.927 1610.04 422.302 1614.45 425.065C1618.87 427.825 1626.59 427.271 1626.59 438.319C1626.59 449.362 1624.38 461.512 1632.11 448.258C1639.83 435.004 1643.7 427.273 1641.49 429.486C1639.28 431.694 1646.46 425.067 1646.46 425.067C1646.46 425.067 1647.01 420.097 1656.39 417.888C1665.77 415.675 1668.53 414.574 1671.84 412.918C1675.15 411.259 1684.54 400.213 1686.19 395.245C1687.85 390.274 1692.26 381.439 1691.16 377.575C1690.06 373.705 1684.54 354.933 1683.43 355.483C1682.33 356.038 1682.88 356.038 1675.71 348.307C1668.53 340.576 1663.57 335.053 1662.46 331.738C1661.36 328.423 1658.6 327.871 1661.91 323.455C1665.22 319.038 1666.88 319.591 1667.43 315.724C1667.98 311.859 1672.39 308.545 1664.12 311.307C1655.84 314.068 1661.91 312.414 1654.74 311.862C1647.56 311.307 1628.8 315.726 1638.18 304.131C1647.56 292.533 1650.32 285.357 1651.97 285.357C1653.63 285.357 1661.91 275.967 1662.46 284.802C1663.02 293.637 1666.32 291.427 1666.88 296.949C1667.43 302.472 1678.47 290.877 1678.47 290.877C1678.47 290.877 1682.33 291.981 1685.09 294.741C1687.85 297.501 1687.85 306.339 1687.85 306.339C1687.85 306.339 1685.64 303.576 1691.71 307.995C1697.78 312.416 1704.4 310.203 1704.4 319.593C1704.4 328.98 1704.4 329.535 1708.27 331.743C1712.13 333.951 1715.99 332.849 1719.31 330.087C1722.62 327.326 1728.13 317.385 1728.13 317.385C1728.13 317.385 1728.69 313.518 1719.86 307.995C1711.03 302.475 1705.51 298.611 1702.2 295.848C1698.89 293.088 1699.99 284.805 1703.3 281.487C1706.62 278.173 1708.27 276.517 1707.16 272.1C1706.06 267.679 1708.82 264.367 1717.1 264.919C1725.38 265.473 1727.03 264.369 1727.03 264.369C1727.03 264.369 1728.69 265.471 1728.69 262.159C1728.69 258.846 1739.17 243.382 1736.41 243.382C1733.65 243.382 1736.97 239.517 1735.31 233.443C1733.65 227.365 1740.83 217.98 1734.76 213.562C1728.69 209.143 1727.03 206.932 1723.17 200.308C1719.31 193.678 1719.85 192.577 1705.51 190.918C1691.16 189.262 1684.54 194.233 1681.23 189.817C1677.91 185.398 1676.26 196.441 1674.05 183.187C1671.85 169.933 1677.37 161.096 1677.37 161.096C1677.37 161.096 1686.2 155.575 1688.4 151.708C1690.61 147.842 1699.44 146.186 1706.62 148.948C1713.79 151.708 1724.27 151.156 1733.11 152.817C1741.94 154.471 1741.38 159.994 1745.8 152.817C1750.21 145.634 1745.8 142.324 1749.11 138.457C1752.42 134.59 1756.28 128.515 1759.04 132.38C1761.8 136.249 1767.33 140.111 1771.74 135.14C1776.16 130.171 1777.81 129.619 1777.81 129.619L1780.01 131.83C1780.01 131.83 1784.98 129.065 1784.98 134.033C1784.98 139.007 1789.95 144.529 1787.19 148.394C1784.43 152.263 1780.57 151.708 1780.57 161.096C1780.57 170.488 1780.57 168.829 1786.63 176.563C1792.71 184.291 1796.57 177.664 1797.67 185.95C1798.78 194.233 1799.88 192.579 1805.95 198.1C1812.02 203.62 1810.92 203.62 1815.33 206.935C1819.75 210.249 1821.96 213.564 1821.96 208.041C1821.96 202.518 1822.51 199.758 1821.96 194.787C1821.4 189.819 1826.37 185.95 1823.06 177.667C1819.75 169.384 1822.51 169.936 1815.89 163.861C1809.26 157.788 1804.84 164.967 1802.64 156.13C1800.43 147.295 1813.12 143.428 1816.44 142.324C1819.75 141.222 1824.71 134.593 1825.82 139.012C1826.92 143.428 1817.54 159.444 1833.55 142.324C1849.55 125.206 1842.37 132.385 1842.37 132.385C1842.37 132.385 1850.65 131.28 1852.31 132.385C1853.96 133.491 1858.38 127.414 1856.72 127.968C1855.07 128.523 1839.07 119.131 1839.07 119.131L1827.47 112.506C1827.47 112.506 1831.34 109.743 1834.1 110.298C1836.86 110.85 1837.41 104.775 1840.17 104.221C1842.93 103.669 1861.69 108.09 1865.56 110.298C1869.42 112.506 1883.21 113.058 1881.56 111.954C1879.9 110.848 1871.08 104.223 1870.52 102.012C1869.97 99.8043 1850.65 95.3855 1844.59 95.9375C1838.51 96.4871 1833 98.1432 1828.03 96.4871C1823.06 94.831 1815.89 90.4122 1812.03 90.4122C1808.16 90.4122 1759.6 81.025 1757.39 81.5771C1755.19 82.1291 1751.87 92.6204 1750.22 90.9642C1748.56 89.3081 1745.8 89.3057 1738.07 87.0975C1730.35 84.8893 1719.86 83.2307 1706.06 82.1291C1692.27 81.025 1682.89 83.2332 1679.03 78.8144C1675.16 74.3981 1666.89 76.0542 1657.51 75.4997C1648.13 74.9501 1637.09 75.4997 1632.12 75.4997C1627.15 75.4997 1615.57 74.9501 1612.81 74.3956C1610.05 73.8411 1606.74 69.9768 1603.43 69.4272C1600.11 68.8727 1600.66 67.7711 1594.04 66.667C1587.42 65.5605 1587.97 58.3839 1585.77 64.4564C1583.56 70.5338 1584.66 68.8752 1581.35 71.0834C1578.04 73.294 1574.73 77.7103 1572.52 77.7103C1570.31 77.7103 1561.48 78.2624 1559.82 77.1583C1558.17 76.0542 1555.41 74.9501 1549.89 74.9501C1544.37 74.9501 1544.37 75.4997 1537.2 74.3956C1530.02 73.2915 1524.5 73.8411 1517.88 70.5313C1511.26 67.2166 1511.26 65.0084 1505.74 65.5605C1500.23 66.115 1500.23 64.4564 1492.49 64.4564C1484.77 64.4564 1475.39 68.8752 1470.42 69.4272C1465.46 69.9793 1454.42 68.8727 1450.56 67.2166C1446.69 65.5605 1445.59 61.6962 1431.24 63.3499C1416.89 65.0084 1408.61 65.0084 1411.37 60.5897C1414.13 56.1733 1417.44 51.7545 1419.1 51.2025C1420.75 50.6505 1424.61 47.8902 1421.85 46.7862C1419.1 45.6796 1416.34 44.026 1409.72 43.4715C1403.09 42.9194 1403.64 45.6796 1393.71 44.5755C1383.78 43.4715 1399.23 40.7112 1378.81 41.2633C1358.39 41.8178 1353.43 43.4715 1351.22 43.4715C1349.01 43.4715 1346.25 39.0551 1340.73 45.6796C1335.21 52.3066 1327.48 56.1709 1316.45 56.7229C1305.41 57.2774 1304.86 55.6188 1294.38 59.4831C1283.89 63.3474 1277.27 58.379 1279.48 67.2142C1281.68 76.0493 1284.44 79.364 1284.44 81.0201C1284.44 82.6762 1279.48 93.722 1273.41 87.095C1267.33 80.4681 1256.3 54.5123 1261.26 72.185C1266.23 89.8552 1277.27 95.9326 1266.78 98.6928C1256.3 101.453 1257.4 97.5887 1255.74 96.4822C1254.09 95.3781 1255.74 87.6471 1255.19 83.2283C1254.64 78.812 1253.54 76.0493 1251.33 73.8411C1249.13 71.6305 1249.67 68.3182 1245.26 67.2142C1240.84 66.1101 1244.71 63.8995 1237.53 63.8995C1230.36 63.8995 1224.29 59.4807 1225.95 69.4223C1227.6 79.3615 1229.25 72.737 1233.67 82.1242C1238.08 91.5114 1246.36 84.8844 1240.29 91.5114C1234.22 98.1383 1218.22 95.9301 1214.35 93.1699C1210.49 90.4073 1211.6 94.274 1204.42 89.3032C1197.24 84.3324 1199.45 80.4656 1191.18 84.3324C1182.9 88.1991 1180.14 95.3781 1176.83 92.6155C1173.51 89.8528 1165.79 96.4797 1163.03 93.1699C1160.27 89.8552 1149.23 89.8552 1147.03 93.1699C1144.82 96.4822 1138.19 95.9302 1128.81 100.349C1119.43 104.765 1122.19 100.899 1110.6 110.288C1099.01 119.675 1092.39 127.406 1088.53 121.331C1084.66 115.259 1063.69 104.765 1071.97 103.107C1080.25 101.451 1084.11 98.1383 1088.53 102.003C1092.94 105.867 1100.12 104.765 1101.22 102.003C1102.32 99.24 1107.29 96.4797 1100.67 93.1675C1094.04 89.8528 1093.49 92.061 1083.01 88.1967C1072.52 84.3299 1083.01 85.4365 1068.66 83.2258C1054.31 81.0177 1048.24 79.9136 1044.38 78.8095C1040.52 77.7054 1034.99 78.8095 1029.48 78.2575C1023.96 77.7054 1020.1 76.6013 1015.13 77.1534C1010.16 77.7054 1007.4 76.6013 1000.78 81.5722C994.154 86.543 989.187 88.7512 984.773 92.6155C980.36 96.4797 968.773 104.213 965.46 106.976C962.148 109.736 950.558 118.571 949.455 121.886C948.351 125.201 950.558 127.961 946.142 130.169C941.726 132.377 937.313 132.377 934.001 132.929C930.688 133.481 934.001 127.958 930.688 133.481C927.378 139.004 928.482 158.885 931.24 156.122C933.998 153.36 932.343 144.527 944.485 152.813C956.626 161.093 964.354 159.989 963.8 167.72C963.249 175.451 972.078 174.899 973.181 176.558C974.284 178.211 979.803 174.347 979.803 174.347C979.803 174.347 991.945 166.616 991.945 162.752C991.945 158.885 999.671 150.05 999.671 150.05C999.671 150.05 994.149 147.29 994.149 141.767C994.149 136.246 995.809 134.585 996.91 129.062C998.013 123.542 990.839 129.065 1007.4 118.569C1023.95 108.078 1025.05 115.259 1025.05 115.259C1025.05 115.259 1027.26 117.467 1024.5 120.779C1021.74 124.094 1016.77 132.932 1015.67 134.033C1014.57 135.14 1020.64 143.975 1023.39 143.975C1026.16 143.975 1031.67 141.764 1034.99 142.316C1038.3 142.871 1043.82 140.663 1045.47 141.767C1047.13 142.871 1050.99 146.183 1048.23 148.946C1045.47 151.706 1039.4 155.018 1034.99 153.917C1030.57 152.815 1023.95 145.079 1027.81 156.125C1031.67 167.171 1027.26 169.931 1023.95 169.379C1020.64 168.827 1013.46 163.306 1014.57 171.589C1015.67 179.87 1007.39 185.393 1005.74 185.393C1004.08 185.393 1000.77 184.841 1000.77 184.841C1000.77 184.841 995.802 184.286 993.046 184.286C990.285 184.286 984.766 187.047 983.111 189.257C981.454 191.465 979.247 189.812 976.489 189.812C973.73 189.812 976.489 186.497 970.969 185.393C965.453 184.289 962.14 183.185 958.83 185.393C955.518 187.601 950.553 188.705 948.344 187.049C946.137 185.393 949.45 181.524 945.031 183.737C940.618 185.945 937.306 192.02 935.651 192.574C933.996 193.124 940.618 192.574 933.996 193.124C927.373 193.678 924.615 195.337 921.303 196.439C917.99 197.545 922.406 204.17 916.335 206.378C910.264 208.586 914.683 203.618 908.609 208.586C902.539 213.559 901.433 217.976 899.229 218.528C897.02 219.082 897.574 220.184 892.606 220.736C887.639 221.288 888.193 221.84 885.43 222.392C882.671 222.944 885.984 224.05 879.913 222.944C873.84 221.84 869.427 224.05 870.53 226.259C871.633 228.467 892.052 234.542 876.601 233.99C861.149 233.438 866.117 236.198 869.427 238.406C872.739 240.614 874.392 242.822 876.049 243.377C877.706 243.929 880.462 250.558 880.462 250.558C880.462 250.558 884.878 250.004 882.12 253.871C879.361 257.737 883.223 258.841 880.462 263.812C877.704 268.783 877.704 265.468 875.497 266.572C873.291 267.674 869.978 271.543 863.905 268.229C857.834 264.914 853.423 263.258 846.247 262.708C839.073 262.154 844.038 261.052 839.073 264.914C834.105 268.783 833.002 273.199 833.556 278.168C834.108 283.136 834.66 289.766 833.002 293.08C831.347 296.393 831.347 299.707 832.448 304.678C833.554 309.646 836.866 311.859 836.866 311.859C836.866 311.859 844.592 312.961 846.247 313.516C847.902 314.068 851.214 312.412 855.628 315.169C860.043 317.932 864.459 319.039 867.217 315.724C869.976 312.412 881.014 308.545 884.329 305.233C887.639 301.918 889.846 300.816 888.191 297.501C886.536 294.187 891.503 285.904 894.261 284.248C897.02 282.591 903.09 280.933 903.09 280.933L909.713 270.994C909.713 270.994 915.232 264.916 917.99 265.471C920.748 266.023 936.2 271.548 935.099 264.369C933.996 257.188 936.202 254.98 937.857 257.74C939.512 260.5 943.928 259.396 943.928 259.396C943.928 259.396 946.135 258.294 947.79 259.95C949.445 261.604 951.651 268.788 954.964 270.442C958.276 272.1 961.035 273.756 963.244 274.858C965.45 275.965 967.659 274.858 972.075 278.725C976.489 282.591 980.904 284.802 981.454 286.456C982.01 288.112 985.872 291.979 985.872 291.979C985.872 291.979 989.733 293.083 988.63 295.293C987.527 297.501 982.01 304.131 979.249 305.233C976.489 306.337 969.317 304.126 972.075 306.337C974.831 308.545 978.698 311.307 980.353 309.649C982.01 307.993 992.492 296.947 992.492 296.947C992.492 296.947 991.94 297.499 992.492 294.184C993.046 290.875 992.492 287.008 995.252 288.664C998.011 290.322 999.668 292.531 1000.77 290.323C1001.87 288.112 1002.98 289.218 1000.22 287.562C997.457 285.904 990.837 276.517 987.524 275.964C984.212 275.41 975.932 269.887 975.932 269.887C975.932 269.887 974.279 268.231 970.415 263.815C966.551 259.396 965.45 260.5 964.342 256.633C963.241 252.769 959.926 247.798 966 248.902C972.073 250.006 975.932 253.871 981.451 257.185C986.97 260.5 985.869 261.602 990.834 264.916C995.799 268.231 996.356 271.546 1000.22 270.994C1004.08 270.442 1008.49 273.202 1008.49 278.173C1008.49 283.143 1009.6 288.664 1010.7 289.77C1011.8 290.877 1015.11 293.085 1016.22 295.293C1017.32 297.501 1019.53 303.024 1021.18 305.233C1022.84 307.441 1024.5 309.099 1026.15 311.862C1027.81 314.622 1028.36 311.307 1030.01 312.414C1031.67 313.518 1033.88 312.964 1033.88 310.755C1033.88 308.547 1034.43 304.68 1034.43 304.68C1034.43 304.68 1042.16 302.472 1039.95 301.366C1037.74 300.262 1031.12 293.635 1031.67 291.427C1032.22 289.218 1031.67 284.802 1034.43 285.354C1037.19 285.904 1039.95 290.875 1046.02 286.456C1052.09 282.037 1059.26 279.829 1057.05 286.456C1054.85 293.083 1057.61 294.184 1057.05 301.366C1056.5 308.547 1059.27 306.337 1063.13 310.203C1066.99 314.07 1069.75 314.625 1072.51 315.726C1075.27 316.833 1079.68 316.281 1084.1 316.833C1088.52 317.385 1091.27 315.174 1095.14 316.281C1099 317.385 1107.83 315.726 1109.49 316.833C1111.14 317.937 1117.77 314.625 1118.32 318.489C1118.87 322.356 1121.08 317.937 1119.42 326.772C1117.77 335.607 1115.56 341.682 1115.56 341.682C1109.49 353.28 1107.28 356.042 1104.52 356.595C1101.76 357.147 1100.11 358.803 1095.14 358.251C1090.17 357.696 1084.1 358.251 1076.93 356.595C1069.75 354.936 1056.51 358.251 1050.99 354.936C1045.47 351.624 1037.75 354.384 1034.43 350.52C1031.12 346.653 1025.6 347.205 1023.39 344.997C1021.19 342.789 1020.08 336.716 1020.08 345.551C1020.08 354.389 1015.12 354.938 1014.01 359.357C1012.91 363.774 1015.67 361.565 1009.6 361.013C1003.52 360.459 1001.87 363.773 993.041 357.149C984.209 350.522 979.796 350.522 975.383 347.759C970.965 344.997 966.551 352.728 962.138 343.895C957.722 335.058 951.651 342.237 951.1 335.057C950.548 327.876 951.1 328.433 951.651 324.014C952.208 319.595 958.274 315.731 955.516 314.075C952.755 312.419 954.961 309.656 951.1 311.315C947.236 312.971 941.719 313.523 937.303 315.179C932.888 316.838 947.236 315.179 925.713 316.838C904.191 318.494 898.118 320.702 898.118 320.702C898.118 320.702 896.463 319.598 893.702 321.806C890.944 324.014 887.08 327.329 883.218 325.673C879.357 324.014 877.147 324.566 873.837 325.121C870.525 325.673 868.321 322.361 864.457 325.121C860.593 327.879 856.179 328.985 854.522 327.879C852.806 326.75 850.035 322.334 850.035 322.334L850.101 322.343Z" fill="#B2B2B2" fill-opacity="0.02"/>
<path d="M1219.3 685.71C1217.64 691.787 1211.57 700.62 1211.57 700.62L1200.53 706.143C1200.53 706.143 1196.68 709.457 1194.46 710.009C1192.26 710.559 1186.74 713.324 1186.74 713.324C1186.74 713.324 1181.77 712.217 1183.43 717.186C1185.08 722.157 1185.64 728.234 1185.08 729.888C1184.53 731.546 1184.53 734.861 1184.53 739.28C1184.53 743.696 1182.88 749.216 1180.12 750.321C1177.36 751.427 1174.6 752.531 1175.15 756.398C1175.7 760.265 1175.7 771.86 1175.7 771.86L1182.88 782.906C1182.88 782.906 1185.09 781.25 1189.5 781.25C1193.91 781.25 1198.33 777.388 1198.33 777.388C1198.33 777.388 1203.3 778.487 1202.74 772.417C1202.19 766.34 1204.96 759.163 1204.4 757.504C1203.85 755.848 1209.37 748.667 1209.37 747.013C1209.37 745.355 1214.89 737.629 1214.89 734.863C1214.89 732.103 1218.75 727.684 1219.3 724.375C1219.85 721.057 1220.4 713.329 1221.51 711.121C1222.61 708.913 1223.17 706.702 1223.17 704.494C1223.17 702.286 1223.17 697.867 1223.17 697.867L1219.24 685.697L1219.3 685.71Z" fill="#B2B2B2" fill-opacity="0.02"/>
<path d="M1651.41 760.272C1649.76 762.478 1648.65 786.228 1647.55 788.988C1646.45 791.748 1644.24 806.109 1645.35 809.419C1646.45 812.736 1648.1 824.883 1647 828.75C1645.89 832.614 1647.55 844.764 1644.79 844.212C1642.03 843.657 1640.93 844.766 1640.93 846.42C1640.93 848.079 1644.79 851.388 1644.79 851.388C1644.79 851.388 1651.42 851.391 1654.17 850.836C1656.93 850.284 1662.45 847.522 1666.87 847.522C1671.28 847.522 1674.04 844.207 1677.9 844.207C1681.77 844.207 1690.05 841.449 1692.25 842.551C1694.46 843.652 1697.77 835.924 1701.63 837.582C1705.5 839.239 1713.78 833.716 1717.64 833.716C1721.5 833.716 1723.16 827.638 1727.57 828.747C1731.99 829.851 1740.27 826.539 1744.13 828.19C1747.99 829.851 1754.06 822.67 1756.82 828.19C1759.58 833.716 1767.86 835.924 1767.86 838.684C1767.86 841.444 1767.3 847.522 1767.3 847.522L1773.93 846.967C1773.93 846.967 1784.41 840.34 1786.07 840.34C1787.73 840.34 1791.59 834.82 1791.59 837.582C1791.59 840.34 1788.27 846.42 1787.17 849.178C1786.07 851.94 1788.28 855.255 1788.28 855.255C1788.28 855.255 1793.8 858.015 1791.59 862.984C1789.38 867.955 1792.14 866.853 1791.59 870.715C1791.04 874.582 1791.59 872.923 1793.79 875.131C1796 877.342 1799.87 881.213 1803.18 880.656C1806.49 880.102 1807.59 876.792 1810.35 878.448C1813.11 880.104 1818.63 879 1820.28 881.211C1821.94 883.417 1809.8 888.94 1830.77 879.555C1851.74 870.163 1853.94 867.955 1856.7 864.64C1859.47 861.328 1862.78 858.015 1864.98 855.805C1867.19 853.597 1865.54 854.149 1872.16 849.178C1878.78 844.209 1878.78 846.418 1884.86 837.028C1890.93 827.643 1895.34 824.329 1896.45 822.67C1897.55 821.011 1899.76 820.462 1900.31 813.83C1900.86 807.205 1905.27 801.131 1905.27 798.922C1905.27 796.717 1906.93 793.404 1906.38 789.535C1905.82 785.668 1908.58 780.151 1905.27 774.628C1901.96 769.102 1906.93 766.899 1901.96 764.684C1896.99 762.475 1893.68 763.582 1892.58 759.715C1891.47 755.848 1887.06 756.4 1885.4 745.909C1883.75 735.418 1877.12 734.309 1877.12 734.309C1877.12 734.309 1870.5 731.549 1872.16 730.447C1873.82 729.341 1874.37 721.607 1873.82 719.399C1873.26 717.191 1873.26 712.22 1871.61 708.91C1869.96 705.593 1868.85 701.179 1867.19 697.31C1865.54 693.446 1862.78 692.339 1861.68 687.923C1860.57 683.506 1858.91 681.845 1858.37 680.744C1857.81 679.64 1856.7 674.119 1855.6 680.189C1854.5 686.264 1852.29 697.859 1852.29 697.859C1852.29 697.859 1847.87 707.252 1846.22 710.012C1844.56 712.77 1842.91 719.951 1840.15 719.396C1837.39 718.844 1835.73 722.162 1833.53 721.605C1831.32 721.05 1828.01 722.159 1826.35 720.503C1824.7 718.844 1820.28 714.428 1818.07 713.874C1815.87 713.324 1814.21 708.908 1812.56 708.908C1810.9 708.908 1808.14 705.038 1808.69 702.83C1809.24 700.622 1809.79 695.654 1810.35 693.443C1810.9 691.235 1814.21 686.262 1814.21 686.262C1814.21 686.262 1814.21 682.949 1811.45 682.949C1808.69 682.949 1808.14 682.949 1802.07 682.395C1796 681.84 1794.35 681.291 1792.13 681.291C1789.93 681.291 1794.35 680.187 1788.27 681.843C1782.2 683.504 1779.44 687.92 1775.58 691.787C1771.72 695.651 1775.03 694.545 1771.72 695.651C1768.41 696.758 1768.96 692.889 1766.75 698.966C1764.54 705.041 1767.86 706.695 1766.2 707.801C1764.54 708.908 1752.96 703.937 1752.96 703.937C1752.96 703.937 1755.71 703.382 1753.51 700.622C1751.3 697.859 1749.09 693.998 1745.78 695.654C1742.47 697.31 1739.71 698.416 1737.5 701.177C1735.3 703.937 1735.3 706.145 1733.64 708.353C1731.99 710.561 1727.57 710.561 1727.02 712.772C1726.47 714.983 1726.47 720.503 1724.81 721.055C1723.16 721.609 1722.61 718.852 1720.95 718.297C1719.3 717.745 1719.85 713.326 1718.75 716.089C1717.64 718.849 1716.54 718.295 1714.88 722.714C1713.22 727.132 1712.67 730.999 1711.02 731.551C1709.37 732.106 1711.02 732.655 1706.05 735.418C1701.09 738.178 1699.98 738.178 1692.81 741.493C1685.64 744.808 1687.29 744.808 1682.33 745.357C1677.36 745.912 1676.25 747.568 1672.94 748.12C1669.63 748.672 1667.43 749.221 1664.11 752.536C1660.8 755.851 1658.04 756.952 1655.84 757.507C1653.63 758.061 1651.52 760.23 1651.52 760.23L1651.41 760.272Z" fill="#B2B2B2" fill-opacity="0.02"/>
<path d="M1683.97 542.13C1681.77 545.447 1674.59 555.384 1671.83 555.938C1669.07 556.488 1666.31 559.253 1664.11 558.698C1661.9 558.144 1656.93 558.698 1655.28 565.877C1653.62 573.056 1650.86 576.923 1649.2 576.369C1647.55 575.816 1651.96 586.86 1642.58 582.446C1633.2 578.027 1636.51 586.313 1635.41 588.523C1634.3 590.729 1637.06 596.806 1637.61 599.015C1638.17 601.223 1639.82 605.089 1642.03 608.399C1644.24 611.714 1645.89 615.578 1649.76 614.479C1653.62 613.37 1665.76 614.479 1665.76 614.479C1665.76 614.479 1670.18 616.135 1672.93 616.135C1675.69 616.135 1676.25 615.031 1677.9 615.031C1679.55 615.031 1682.86 609.506 1682.31 608.956C1681.76 608.399 1680.11 606.746 1683.42 603.431C1686.73 600.116 1690.59 599.015 1691.15 595.148C1691.7 591.283 1690.04 591.283 1691.7 589.07C1693.35 586.862 1697.21 587.419 1696.11 585.206C1695.01 582.998 1697.21 583.55 1695.01 579.129C1692.8 574.712 1690.04 573.054 1692.25 567.531C1694.46 562.011 1696.67 560.904 1696.11 557.592C1695.56 554.275 1698.87 553.173 1695.01 549.306C1691.15 545.444 1689.49 544.338 1686.73 543.229L1684.01 542.1L1683.97 542.13Z" fill="#B2B2B2" fill-opacity="0.02"/>
<path d="M1792.15 597.358C1794.36 596.806 1802.08 591.283 1802.64 601.225C1803.19 611.164 1803.73 608.402 1807.05 613.925C1810.36 619.447 1812.56 621.108 1816.43 618.346C1820.29 615.581 1824.7 615.581 1825.81 610.615C1826.91 605.644 1826.91 605.644 1830.22 605.644C1833.54 605.644 1834.64 605.092 1836.3 607.305C1837.95 609.508 1839.05 607.3 1846.23 611.167C1853.41 615.034 1859.47 613.925 1863.89 617.794C1868.31 621.658 1870.52 621.111 1876.59 623.317C1882.66 625.525 1879.9 622.213 1885.41 628.287C1890.94 634.36 1888.73 636.016 1891.49 638.779C1894.24 641.539 1896.46 636.568 1895.35 643.195C1894.24 649.822 1886.52 643.195 1898.11 652.58C1909.7 661.972 1911.35 663.63 1915.21 666.388C1919.08 669.151 1921.84 672.466 1918.53 672.466C1915.21 672.466 1904.73 672.466 1903.63 670.807C1902.53 669.151 1897.56 668.044 1894.25 664.18C1890.94 660.318 1883.76 657.553 1882.11 654.241C1880.45 650.924 1878.25 649.822 1875.49 649.822C1872.73 649.822 1869.97 653.134 1866.1 657.001C1862.24 660.865 1863.9 654.795 1858.93 656.449C1853.96 658.107 1848.45 655.894 1845.68 653.686C1842.92 651.478 1843.48 648.166 1839.07 649.822C1834.65 651.478 1831.89 650.374 1833.55 647.062C1835.2 643.745 1834.1 639.328 1834.1 639.328C1834.1 639.328 1835.76 633.805 1831.9 632.704C1828.03 631.602 1828.03 627.735 1824.17 626.626C1820.3 625.525 1814.24 622.762 1814.24 622.762C1814.24 622.762 1813.68 622.762 1812.03 622.21C1810.37 621.656 1810.37 621.656 1805.96 620.554C1801.54 619.447 1798.23 620.549 1796.02 617.791C1793.81 615.031 1794.92 611.164 1794.92 611.164C1794.92 611.164 1803.75 612.268 1794.92 605.641L1786.09 599.017C1786.09 599.017 1787.19 598.462 1786.64 597.358C1786.07 596.23 1792.15 597.334 1792.15 597.334L1792.15 597.358Z" fill="#B2B2B2" fill-opacity="0.02"/>
<path d="M1543.8 551.502C1543.8 551.502 1546.56 554.267 1550.97 553.713C1555.39 553.158 1558.69 562.548 1561.46 565.86C1564.22 569.175 1565.88 570.831 1571.94 574.698C1578.01 578.562 1577.46 571.383 1585.74 582.981C1594.02 594.576 1590.15 587.4 1594.02 594.576C1597.88 601.762 1600.09 605.624 1602.3 607.285C1604.5 608.941 1606.16 613.355 1606.71 615.014C1607.26 616.67 1611.12 621.638 1611.12 623.297C1611.12 624.953 1612.23 629.372 1608.92 633.236C1605.61 637.103 1602.85 637.655 1602.85 637.655C1602.85 637.655 1596.22 634.34 1594.02 631.028C1591.81 627.716 1589.05 624.953 1585.19 618.329C1581.33 611.699 1576.91 604.52 1574.7 601.208C1572.5 597.891 1569.18 594.576 1567.53 591.266C1565.87 587.949 1561.46 578.012 1559.25 576.906C1557.04 575.799 1556.49 572.489 1552.63 568.623C1548.77 564.756 1549.32 561.444 1547.66 559.236C1546.01 557.027 1542.14 552.052 1542.14 552.052L1543.76 551.512L1543.8 551.502Z" fill="#B2B2B2" fill-opacity="0.02"/>
<path d="M470.434 982.266C466.57 980.058 458.293 976.191 455.534 973.983C452.776 971.775 444.499 959.62 444.499 959.62L438.425 948.023C438.425 948.023 431.254 939.187 432.909 935.875C434.564 932.56 437.876 930.352 437.876 928.696C437.876 927.04 441.186 922.619 438.425 920.965C435.667 919.307 435.667 918.757 434.01 913.786C432.355 908.818 432.355 904.394 430.148 903.292C427.939 902.191 426.284 895.009 424.077 894.457C421.871 893.903 419.661 890.039 419.661 890.039L416.349 845.306C416.349 845.306 415.243 824.876 414.142 820.454C413.037 816.038 415.797 806.651 413.037 798.365C410.278 790.082 413.591 780.143 411.933 776.828C410.278 773.514 413.037 764.129 411.382 755.294C409.727 746.459 418.004 735.413 411.382 732.101C404.759 728.784 409.727 723.815 404.208 723.815C398.691 723.815 394.827 721.053 389.859 717.191C384.892 713.324 375.509 706.142 372.75 703.38C369.992 700.622 361.161 693.441 358.402 691.232C355.644 689.024 352.883 679.635 350.677 676.872C348.47 674.114 347.367 665.831 344.054 660.86C340.742 655.892 336.328 647.609 335.223 645.95C334.119 644.294 321.978 629.936 321.978 629.936L323.081 621.101C323.081 621.101 331.359 616.13 330.255 614.474C329.152 612.815 330.809 611.157 326.943 607.847C323.079 604.53 323.63 598.455 326.943 595.697C330.255 592.932 335.22 584.097 335.22 584.097L343.498 570.294C343.498 570.294 350.122 563.11 350.122 558.141C350.122 553.173 359.503 549.861 353.984 545.442C348.465 541.021 351.226 537.156 349.568 533.842C347.911 530.529 349.017 528.321 353.984 525.007C358.952 521.692 367.781 509.544 367.781 509.544C367.781 509.544 374.403 507.886 376.058 507.886C377.713 507.886 380.474 490.211 385.441 501.808C390.409 513.406 392.064 507.331 390.409 515.614C388.751 523.898 392.615 522.244 394.822 520.036C397.029 517.823 393.716 521.692 398.132 511.748C402.545 501.808 400.893 498.496 403.651 501.259C406.409 504.022 407.513 504.574 412.48 506.23C417.445 507.886 419.102 507.331 420.755 510.646C422.41 513.961 421.861 509.542 431.242 511.201C440.622 512.859 453.867 507.886 452.212 513.406C450.557 518.929 447.245 512.854 454.97 518.929C462.696 525.007 463.802 526.108 468.215 527.215C472.629 528.319 476.493 527.767 483.118 534.394C489.74 541.018 491.395 541.573 493.05 544.882C494.705 548.2 497.463 545.989 500.224 549.301C502.982 552.618 506.846 552.618 510.708 552.618C514.57 552.618 510.708 549.301 516.779 553.722C522.852 558.139 527.265 558.688 530.024 567.526C532.782 576.368 538.301 575.812 533.885 584.649C529.472 593.487 520.643 597.351 524.505 596.799C528.366 596.244 535.543 592.93 537.749 593.484C539.956 594.034 541.059 591.828 544.372 593.484C547.684 595.14 548.236 591.276 547.684 595.14C547.13 599.007 547.13 595.14 547.13 599.007C547.13 602.871 546.027 595.14 552.649 596.799C559.272 598.455 555.407 593.482 563.133 600.663C570.861 607.845 570.861 605.637 573.617 609.501C576.378 613.363 579.136 607.295 580.794 608.949C582.451 610.602 587.416 609.498 592.384 610.605C597.351 611.707 594.039 607.293 601.767 612.261C609.49 617.229 617.218 615.573 618.873 619.992C620.528 624.408 624.947 622.752 627.151 625.515C629.355 628.278 630.461 624.408 632.67 628.278C634.876 632.139 641.501 631.035 640.396 634.9C639.29 638.769 642.048 636.558 640.945 642.079C639.844 647.606 635.977 656.442 632.67 658.647C629.357 660.858 629.36 663.618 627.151 666.378C624.944 669.143 625.496 663.618 622.735 671.349C619.977 679.083 620.528 680.187 618.322 687.363C616.115 694.54 617.77 687.363 616.115 694.542C614.46 701.721 615.563 706.14 613.908 714.426C612.253 722.706 612.805 722.709 611.702 728.784C610.598 734.858 614.46 726.026 609.493 738.723C604.528 751.427 603.976 750.87 602.321 756.395C600.664 761.921 602.873 757.5 596.802 760.814C590.731 764.131 594.044 763.022 586.867 765.233C579.695 767.441 570.864 769.654 568.106 770.204C565.347 770.753 554.309 774.068 557.621 780.693C560.934 787.322 560.934 788.426 557.621 796.712C554.309 804.992 549.344 807.757 549.344 811.619C549.344 815.484 547.135 819.348 546.586 822.11C546.032 824.873 551.551 819.348 544.931 827.633C538.308 835.916 537.757 833.708 535.548 838.679C533.341 843.647 535.548 839.781 533.341 843.647C531.134 847.512 525.615 849.168 525.615 849.168C525.615 849.168 526.164 851.931 523.958 850.827C521.749 849.725 522.303 851.378 514.023 849.168C505.746 846.96 504.642 841.442 503.539 845.304C502.436 849.168 504.091 851.381 509.058 855.245C514.023 859.112 522.303 860.214 520.094 864.083C517.887 867.95 517.887 867.95 516.232 870.158C514.575 872.368 518.439 870.71 514.575 872.368C510.713 874.025 508.504 881.206 506.849 881.206C505.194 881.206 504.088 883.966 501.881 882.862C499.675 881.755 494.158 877.891 493.052 880.099C491.949 882.305 489.74 877.337 490.292 885.068C490.846 892.799 491.949 897.218 489.188 898.876C486.43 900.532 479.805 898.876 479.805 898.876L478.702 896.113L474.84 897.218C474.84 897.218 473.185 903.845 475.943 904.949C478.702 906.053 478.15 907.154 480.908 910.469C483.669 913.784 482.014 919.859 482.014 919.859C482.014 919.859 482.014 921.517 479.256 924.277C476.498 927.038 475.392 929.248 474.84 930.904C474.286 932.56 470.976 939.742 475.943 939.187C480.908 938.633 484.775 935.873 484.775 944.71C484.775 953.545 486.982 951.34 484.223 957.412C481.463 963.487 479.256 964.039 478.704 969.56C478.155 975.082 479.258 975.634 480.362 978.949C481.465 982.264 484.226 980.605 481.465 982.264C478.719 983.834 470.456 982.19 470.456 982.19L470.434 982.266Z" fill="#B2B2B2" fill-opacity="0.02"/>
<path d="M328.056 532.733L324.194 527.212C324.194 527.212 322.539 523.895 319.778 523.345C317.018 522.796 310.947 515.614 310.947 515.614C310.947 515.614 308.189 513.406 308.189 509.542C308.189 505.675 305.98 499.603 307.635 492.976C309.292 486.351 309.844 478.066 309.292 475.855C308.738 473.647 312.05 473.095 308.189 470.884C304.325 468.676 296.599 468.124 291.631 468.124C286.666 468.124 280.593 469.783 279.49 470.332C278.387 470.884 285.561 453.766 286.664 451.006C287.767 448.246 292.735 436.093 292.735 434.44C292.735 432.781 294.39 432.229 291.08 430.023C287.77 427.813 282.251 426.709 278.938 428.365C275.628 430.023 276.18 426.157 273.422 432.781C270.663 439.411 267.903 446.59 264.59 447.694C261.28 448.8 254.658 452.112 254.658 452.112C254.658 452.112 246.38 451.56 243.62 451.008C240.861 450.456 229.271 444.381 227.065 440.517C224.858 436.65 223.755 428.365 223.755 424.503C223.755 420.636 229.823 409.041 229.271 406.278C228.72 403.518 235.345 392.472 234.79 390.814C234.236 389.158 235.894 383.635 237.549 381.427C239.204 379.218 247.484 376.456 249.69 374.248C251.897 372.037 255.761 369.279 259.623 368.173C263.484 367.066 266.799 365.964 269.558 365.964C272.316 365.964 279.49 359.89 280.593 365.964C281.699 372.037 286.666 369.829 289.425 370.381C292.183 370.935 292.737 373.696 297.15 366.516C301.566 359.335 305.98 357.127 305.98 358.783C305.98 360.442 313.154 358.233 314.257 359.89C315.36 361.546 317.569 358.783 321.431 362.098C325.295 365.412 330.812 365.964 330.26 367.618C329.708 369.274 332.467 369.274 332.467 370.933C332.467 372.589 334.676 367.066 334.676 377.005C334.676 386.947 337.434 393.022 337.434 393.022C337.434 393.022 341.296 401.307 342.951 399.649C344.606 397.993 347.916 393.576 347.916 393.576C347.916 393.576 353.435 390.262 349.573 378.664C345.709 367.069 348.47 363.754 347.367 359.887C346.261 356.02 346.261 353.81 352.883 348.841C359.506 343.873 375.509 332.827 379.373 330.619C383.234 328.411 392.064 322.336 392.064 322.336C392.064 322.336 395.374 320.68 395.928 316.261C396.479 311.845 406.963 304.111 407.518 301.903C408.072 299.695 415.246 294.174 415.246 294.174C415.246 294.174 422.969 289.753 422.417 286.995C421.866 284.235 432.352 279.267 434.007 279.267C435.662 279.267 444.494 282.025 444.494 277.054C444.494 272.085 444.494 270.979 450.013 266.563C455.529 262.146 462.703 255.517 465.464 255.517C468.223 255.517 477.606 250.551 481.467 249.444C485.331 248.338 497.473 242.815 486.435 249.444C475.397 256.069 482.571 252.205 480.364 257.727C478.16 263.248 476.5 270.429 486.986 262.144C497.473 253.861 496.919 252.202 500.783 251.653C504.647 251.101 501.886 253.309 510.164 250.546C518.444 247.786 518.995 246.682 518.995 246.682C518.995 246.682 522.859 243.367 520.65 241.713C518.444 240.055 522.859 237.847 514.579 241.159C506.302 244.474 506.854 245.026 501.335 243.367C495.818 241.711 487.538 242.26 493.609 236.738C499.68 231.217 507.405 229.559 502.438 227.35C497.473 225.142 484.78 227.905 483.125 228.455C481.467 229.007 477.606 227.902 474.293 228.455C470.983 229.007 472.087 224.041 474.293 222.934C476.502 221.828 483.676 218.513 492.506 216.305C501.335 214.097 522.859 213.545 527.824 213.545C532.789 213.545 539.412 214.651 543.276 211.888C547.137 209.128 554.866 204.712 555.969 202.499C557.075 200.291 561.488 196.978 561.488 196.978C561.488 196.978 566.453 192.008 563.695 189.799C560.936 187.591 558.176 182.62 555.969 183.724C553.762 184.829 555.42 191.458 551.004 184.276C546.588 177.1 547.14 175.993 544.933 174.337C542.727 172.681 540.517 173.783 542.175 166.054C543.83 158.323 543.278 155.008 543.278 155.008C543.278 155.008 544.933 148.384 543.278 147.832C541.621 147.277 540.52 145.624 537.762 147.277C535.001 148.934 519.549 156.667 516.239 158.323C512.927 159.979 508.511 151.696 510.166 147.832C511.824 143.963 510.718 146.173 508.511 140.653C506.304 135.13 497.475 134.023 494.163 134.023C490.851 134.023 483.127 129.053 480.918 132.367C478.712 135.68 467.124 146.171 464.913 147.277C462.706 148.384 459.396 137.89 457.741 155.008C456.083 172.132 463.812 177.1 454.983 178.204C446.154 179.308 438.425 184.276 438.425 184.276C438.425 184.276 431.254 184.831 431.254 189.247C431.254 193.669 428.495 204.157 425.181 205.261C421.871 206.368 413.591 204.712 410.832 201.397C408.074 198.082 411.384 185.935 411.384 185.935L416.351 180.964C416.351 180.964 381.033 175.444 381.582 173.233C382.136 171.025 371.098 167.161 369.995 163.846C368.891 160.531 368.337 153.352 369.443 150.592C370.546 147.832 385.446 134.578 393.172 131.818C400.898 129.055 414.142 122.983 418.006 121.876C421.871 120.772 428.491 121.324 430.7 118.564C432.906 115.801 433.458 110.833 433.458 110.833C433.458 110.833 432.355 103.099 434.561 104.203C436.768 105.31 440.632 106.966 441.184 108.622C441.738 110.278 441.738 114.145 445.599 109.724C449.464 105.308 454.431 103.649 458.844 101.443C463.26 99.2326 469.88 99.7871 473.747 97.5789C477.608 95.3708 484.231 93.1601 484.782 87.6373C485.334 82.1168 483.127 83.773 480.367 83.2185C477.608 82.6689 481.47 83.773 472.089 88.1893C462.706 92.6056 465.467 89.2934 458.844 92.6056C452.222 95.9203 451.668 96.4724 451.119 93.7122C450.564 90.9495 452.222 86.5332 452.222 86.5332C452.222 86.5332 452.776 85.9787 448.912 84.8771C445.048 83.773 445.048 85.4291 444.496 80.4607C443.944 75.4899 447.254 68.3109 441.738 70.5191C436.219 72.7272 431.254 68.8629 427.39 79.9062C423.526 90.9495 410.281 102.55 406.968 99.7871C403.658 97.0269 403.107 96.4724 400.346 96.4724C397.585 96.4724 393.723 93.1601 388.756 92.6081C383.789 92.056 368.886 92.056 365.027 92.6081C361.163 93.1626 356.75 90.3999 353.435 93.7146C350.125 97.0269 345.16 101.446 345.16 103.104C345.16 104.76 340.192 97.0269 338.537 97.5814C336.882 98.1334 332.464 95.3732 327.502 95.3732C322.534 95.3732 319.222 92.6105 317.569 92.6105C315.914 92.6105 319.222 88.1918 317.569 87.6397C315.914 87.0901 280.039 85.9836 280.039 85.9836C280.039 85.9836 268.452 81.5673 264.038 82.1193C259.623 82.6713 247.484 83.2209 238.098 84.8795C228.715 86.5356 214.918 92.0585 210.505 92.6105C206.089 93.165 196.157 93.165 194.502 90.4024C192.844 87.6422 195.053 88.1942 192.844 87.6422C190.638 87.0926 192.295 85.986 187.328 82.1217C182.36 78.255 189.537 74.9428 179.602 74.9428C169.67 74.9428 163.599 74.3883 154.77 74.9428C145.938 75.4948 127.728 79.9111 125.522 79.3591C123.315 78.807 105.655 82.1218 102.894 80.4656C100.136 78.807 86.3366 86.5381 83.5807 85.986C80.8224 85.434 70.3359 86.5405 67.5776 88.1967C64.8168 89.8552 51.572 93.165 55.9877 95.9277C60.401 98.6879 59.8494 101.448 60.401 103.107C60.9551 104.763 55.9877 108.627 55.9877 108.627C55.9877 108.627 54.8819 108.627 48.8136 106.419C42.7429 104.208 36.1205 103.107 33.3597 104.763C30.6014 106.419 25.634 109.736 26.7373 111.944C27.8431 114.152 35.5664 119.123 36.6721 117.465C37.7755 115.809 40.5362 112.496 43.8462 113.048C47.1586 113.603 52.1261 110.84 47.7103 116.363C43.2946 121.883 39.4305 124.646 36.6721 125.201C33.9138 125.75 27.2914 126.302 21.2207 126.857C15.1475 127.411 15.6991 124.649 10.1825 130.171C4.66585 135.692 2.45674 132.38 1.35341 138.455C0.250087 144.527 -0.85324 144.527 1.35341 146.186C3.56007 147.842 -3.06235 148.394 1.90508 150.05C6.87005 151.708 12.9408 153.365 12.3891 155.018C11.835 156.677 17.9082 152.813 14.5958 157.226C11.2834 161.648 9.07915 165.509 15.6991 161.093C22.3215 156.677 26.1832 159.987 31.7023 157.226C37.2214 154.466 42.7404 153.914 46.0504 151.706C49.3629 149.495 51.0178 146.186 55.9853 144.525C60.9527 142.868 57.6403 145.079 58.1919 147.839C58.7436 150.599 58.1919 151.152 61.5043 148.941C64.8143 146.733 64.8143 148.391 69.2301 145.629C73.6434 142.868 78.6108 140.106 81.9232 141.762C85.2332 143.42 86.3366 143.42 88.5457 143.42C90.7523 143.42 85.7874 142.866 90.7523 143.42C95.7197 143.97 88.5457 141.762 105.1 145.629C121.658 149.493 126.074 146.733 127.174 152.808C128.28 158.883 130.487 152.253 133.245 156.12C136.003 159.984 137.661 156.674 139.316 163.299C140.971 169.928 139.316 188.151 138.213 190.359C137.109 192.567 136.558 192.567 137.109 197.538C137.661 202.506 144.283 226.256 142.077 227.91C139.87 229.564 134.903 230.118 134.903 230.118L132.144 240.057C132.144 240.057 127.731 248.34 123.867 252.759C120.003 257.175 115.038 262.701 112.277 266.563C109.519 270.429 107.31 277.059 103.448 280.923C99.5863 284.787 96.2739 283.131 97.3772 291.414C98.4805 299.697 97.3772 308.532 98.4805 314.61C99.5863 320.685 102.345 328.968 104.551 332.283C106.758 335.595 108.415 335.595 112.277 338.355C116.141 341.115 121.109 344.432 120.554 347.193C120.003 349.953 121.106 367.076 121.106 367.076C121.106 367.076 124.419 372.596 124.968 378.671C125.522 384.749 129.383 390.821 129.383 390.821L132.696 398.003C132.696 398.003 134.351 398.557 136.56 402.971C138.767 407.39 138.767 407.39 139.318 409.595C139.872 411.808 139.872 411.254 139.872 411.808C139.872 412.358 139.318 402.419 138.215 399.656C137.112 396.896 137.112 393.584 136.008 390.269C134.905 386.954 136.56 383.088 133.25 378.119C129.94 373.151 129.94 372.596 128.285 367.626C126.63 362.657 124.421 357.134 126.63 356.028C128.837 354.926 130.492 347.747 134.907 356.028C139.321 364.311 139.875 362.105 140.427 368.732C140.976 375.359 142.633 377.57 144.288 380.327C145.943 383.088 149.805 392.48 152.014 396.341C154.221 400.208 152.014 394.133 156.979 401.864C161.946 409.595 162.5 411.252 165.259 417.326C168.017 423.401 169.675 423.401 171.33 427.818C172.985 432.239 171.881 431.132 170.775 436.101C169.672 441.069 171.879 446.594 171.879 446.594C171.879 446.594 179.604 449.355 180.156 451.011C180.708 452.667 188.434 455.427 189.539 457.638C190.643 459.848 197.817 462.606 197.817 462.606C197.817 462.606 203.887 466.473 206.092 467.577C208.301 468.681 214.926 469.788 214.926 469.788C214.926 469.788 219.339 470.894 220.994 471.444C222.649 471.996 227.616 471.996 227.616 471.996C227.616 471.996 232.032 468.684 233.687 469.788C235.342 470.889 239.206 467.577 240.861 470.337C242.516 473.1 245.829 473.1 247.484 475.31C249.139 477.519 250.794 477.519 253.554 480.279C256.315 483.039 259.073 482.487 261.832 484.695C264.59 486.903 266.797 486.903 270.109 486.903C273.419 486.903 273.419 486.903 275.628 487.458C277.832 488.01 278.938 485.799 281.145 488.564C283.352 491.325 285.007 492.981 286.662 495.741C288.317 498.501 292.181 498.501 292.732 502.92C293.284 507.336 294.387 506.789 294.387 510.651C294.387 514.518 296.594 516.174 298.251 517.28C299.904 518.382 305.975 523.902 305.975 523.902L314.252 525.561L320.874 530.532L327.862 532.74L328.056 532.733Z" fill="#B2B2B2" fill-opacity="0.02"/>
<path d="M504.932 19.7018L538.044 15.5602C538.044 15.5602 549.631 15.5602 555.427 11.4187C561.221 7.27714 555.427 7.27714 572.811 3.96489C590.194 0.650183 585.229 -1.00594 594.335 0.650182C603.439 2.30876 605.923 2.30876 615.858 3.96489C625.79 5.62101 628.274 3.13805 637.377 5.62101C646.484 8.10643 650.622 7.27714 658.073 7.27714H681.251C692.84 7.27714 703.602 0.650182 707.74 4.79172C711.879 8.93326 714.363 7.27714 728.436 8.93326C742.507 10.5894 748.303 7.27468 754.097 8.93326C759.893 10.5894 769.828 8.10643 781.415 8.93326C793.003 9.7601 798.799 8.10643 802.938 8.10643C807.076 8.10643 811.213 2.30631 817.009 7.27714C822.805 12.248 830.254 5.62101 831.08 12.248C831.909 18.8749 842.67 13.9041 831.909 18.8749C821.147 23.8458 822.802 23.0165 815.351 29.6434C807.903 36.2704 820.319 42.068 804.59 47.8682C788.862 53.6658 786.378 44.5535 782.239 54.4951C778.101 64.4343 782.239 66.9197 781.413 71.8906C780.584 76.8589 778.929 77.6882 773.962 81.8298C768.997 85.9713 768.997 81.8298 757.407 84.3152C745.817 86.8006 737.54 89.286 732.575 89.286C727.607 89.286 716.846 93.4276 713.534 95.0837C710.221 96.7423 719.33 99.2252 701.944 104.196C684.561 109.167 680.419 108.34 675.454 114.965C670.487 121.594 672.142 122.423 668.832 126.565C665.52 130.706 655.587 147.275 650.62 143.133C645.655 138.992 643.169 139.819 639.03 135.677C634.891 131.536 632.407 125.738 629.924 122.423C627.44 119.109 626.611 110.825 625.785 105.855C624.959 100.884 617.505 89.2885 625.785 90.9446C634.062 92.6007 639.03 91.7739 641.514 90.1178C643.997 88.4592 646.481 82.6615 646.481 82.6615C646.481 82.6615 645.655 73.5491 643.169 68.5783C640.685 63.6075 642.342 59.4659 638.204 54.4976C634.065 49.5267 634.065 50.356 628.269 45.3852C622.475 40.4144 624.13 37.929 615.024 37.1021C605.918 36.2753 603.434 33.7874 600.122 34.6167C596.812 35.4435 586.051 28.8166 597.638 27.9897C609.228 27.1605 619.989 28.8166 619.989 28.8166C619.989 28.8166 634.889 22.1896 629.924 21.3628C624.959 20.5335 637.372 13.0773 625.785 15.5627C614.195 18.0481 600.953 21.3628 597.64 22.1896C594.33 23.0165 586.051 23.8458 577.773 26.3312C569.498 28.8166 559.561 27.9897 554.596 33.7874C549.629 39.5851 554.596 40.4144 549.629 39.5851C544.664 38.7582 553.767 33.7874 542.18 39.5851C530.59 45.3852 533.902 44.5559 528.109 42.8998C522.313 41.2437 518.174 38.7582 518.174 38.7582C518.174 38.7582 525.627 37.929 514.864 37.1021C504.103 36.2753 504.103 36.2753 499.964 31.302C495.825 26.3312 498.309 26.3312 500.79 24.675C503.242 23.0165 504.909 19.7018 504.909 19.7018H504.932Z" fill="#B2B2B2" fill-opacity="0.02"/>
<path d="M486.714 56.9781C482.576 61.1196 472.641 66.9197 475.127 69.4052C477.611 71.8906 479.266 81.0029 484.233 78.5175C489.198 76.0321 483.404 67.749 502.443 74.376C521.484 81.0029 519.826 73.5491 523.965 83.4884C528.104 93.4276 531.414 100.881 528.93 103.369C526.449 105.855 525.62 108.34 517.34 110.825C509.063 113.311 505.75 116.626 511.547 120.765C517.34 124.906 528.104 129.048 533.069 131.536C538.036 134.019 552.936 134.85 545.485 126.567C538.034 118.284 547.14 115.796 547.14 115.796C547.14 115.796 561.213 126.567 556.248 114.14C551.281 101.716 547.969 101.716 551.281 101.716C554.593 101.716 561.213 105.857 561.213 105.857L564.526 99.2301L561.213 88.4616L550.452 77.6931C550.452 77.6931 559.556 69.4101 547.14 67.7539C534.724 66.0978 535.55 66.0978 528.928 61.9538C522.305 57.8123 521.479 56.1562 509.06 58.6416C496.644 61.127 492.506 62.7831 492.506 62.7831L486.744 56.9781H486.714Z" fill="#B2B2B2" fill-opacity="0.02"/>
<path d="M302.115 66.9197C307.083 61.9489 320.328 50.3536 325.295 53.6658C330.26 56.9781 337.709 51.1804 343.505 56.1512C349.299 61.1221 355.921 66.9197 360.888 68.5759C365.856 70.232 371.65 64.4343 376.617 66.9197C381.582 69.4051 398.966 54.4951 395.656 66.0929C392.343 77.6907 399.794 81.0029 390.688 81.8322C381.582 82.6615 371.65 89.2885 367.508 86.8031C363.37 84.3176 360.057 81.8322 353.435 85.1469C346.812 88.4592 350.125 88.4592 342.674 86.8031C335.225 85.1469 333.57 88.4592 331.915 85.9738C330.258 83.4908 325.293 84.3176 326.119 76.8614C326.945 69.4076 329.429 70.2344 324.462 70.2344C319.497 70.2344 315.358 71.0637 312.045 68.5783C308.76 66.0929 302.14 66.9197 302.14 66.9197H302.115Z" fill="#B2B2B2" fill-opacity="0.02"/>
</g>
<defs>
<clipPath id="clip0_2_34">
<rect width="1920" height="983" fill="white"/>
</clipPath>
</defs>
</svg>
